<?xml version="1.0" encoding="utf-8"?>
<!-- Generator: Adobe Illustrator 24.1.1, SVG Export Plug-In . SVG Version: 6.00 Build 0)  -->
<svg version="1.1" id="Calque_1" xmlns="http://www.w3.org/2000/svg" xmlns:xlink="http://www.w3.org/1999/xlink" x="0px" y="0px"
	 width="30px" height="30px" viewBox="0 0 30 30" style="enable-background:new 0 0 30 30;" xml:space="preserve">
<g>
	<path style="fill:#C7C7D2;" d="M18.1,17.2c0-0.7,0.2-1.5,0.6-2.5c0.4-0.9,0.9-1.8,1.5-2.7s1.3-1.6,2.1-2.2C23,9.2,23.8,9,24.7,9
		c0.6,0,1.2,0.2,1.7,0.5s0.7,0.8,0.7,1.6s-0.3,1.3-0.8,1.5s-1,0.3-1.5,0.5c-0.5,0.3-0.9,0.6-1.2,1.1c-0.3,0.4-0.5,0.9-0.5,1.5
		c0,0.4,0.2,0.8,0.5,1.1c0.4,0.3,0.8,0.5,1.4,0.5c0.2,0,0.5,0,0.8-0.1s0.6-0.2,0.8-0.3c0.4,0.2,0.7,0.4,0.9,0.7
		c0.2,0.3,0.4,0.7,0.4,1.3c0,0.8-0.3,1.4-0.8,2s-1.2,1-1.9,1.4c-0.8,0.3-1.5,0.5-2.2,0.5c-1.5,0-2.7-0.5-3.6-1.4
		C18.5,20.3,18.1,19,18.1,17.2z"/>
	<path style="fill:#C7C7D2;" d="M3.2,17.2c0-0.7,0.2-1.5,0.6-2.5c0.4-0.9,0.9-1.8,1.5-2.7s1.3-1.6,2.1-2.2C8.1,9.2,8.9,9,9.8,9
		c0.6,0,1.2,0.2,1.7,0.5s0.7,0.8,0.7,1.6s-0.3,1.3-0.8,1.5s-1,0.3-1.5,0.5c-0.5,0.3-0.9,0.6-1.2,1.1c-0.3,0.4-0.4,0.9-0.4,1.5
		c0,0.4,0.2,0.8,0.5,1.1c0.4,0.3,0.8,0.5,1.4,0.5c0.2,0,0.5,0,0.8-0.1s0.6-0.2,0.8-0.3c0.4,0.2,0.7,0.4,0.9,0.7
		c0.2,0.3,0.4,0.7,0.4,1.3c0,0.8-0.3,1.4-0.8,2s-1.2,1-1.9,1.4c-0.8,0.3-1.5,0.5-2.2,0.5c-1.5,0-2.7-0.5-3.6-1.4
		C3.6,20.3,3.2,19,3.2,17.2z"/>
</g>
</svg>
