<?xml version="1.0" encoding="utf-8"?>
<!-- Generator: Adobe Illustrator 24.0.2, SVG Export Plug-In . SVG Version: 6.00 Build 0)  -->
<svg version="1.1" id="Calque_1" xmlns="http://www.w3.org/2000/svg" xmlns:xlink="http://www.w3.org/1999/xlink" x="0px" y="0px"
	 viewBox="0 0 345.1 357.2" style="enable-background:new 0 0 345.1 357.2;" xml:space="preserve">
<g id="Groupe_9" transform="translate(-266.766 -943.351)">
	
		<linearGradient id="Tracé_58_1_" gradientUnits="userSpaceOnUse" x1="339.5148" y1="1271.4038" x2="340.757" y2="1271.4038" gradientTransform="matrix(236.0581 181.8078 181.8752 -236.0522 -311075.3125 239377.9844)">
		<stop  offset="0" style="stop-color:#E6294A"/>
		<stop  offset="0.787" style="stop-color:#E94B32"/>
		<stop  offset="1" style="stop-color:#EA592D"/>
	</linearGradient>
	<path id="Tracé_58" style="fill:url(#Tracé_58_1_);" d="M577.5,1212.7c-6.1,38.2-24,77-65.5,86.3c-26.9,6-57.9-6.3-70.3-30.8
		c-9.3-18.3-7.9-40.2-14.7-59.5c-8.8-24.9-30.4-43.3-53.5-56.1c-23.1-12.9-48.4-21.5-71.5-34.3c-10.1-5.7-20.1-12.4-26.4-22.2
		c-6-9.3-8.1-20.6-8.7-31.6c-0.6-10.7,0.3-21.8,5-31.3c4.3-8.7,11.7-15.6,20.1-20.5c23-13.5,52-11.8,77.7-5
		c25.5,6.8,50.2,19.7,76.4,23.3c27.7,3.8,56.6-0.6,83.4-7.9c14.3-3.9,29-7.4,43.7-5.7c14.7,1.7,29.5,9.6,35.5,23.1
		c3.3,7.4,3.7,15.8,2.7,23.8c-2.3,17.8-11.3,34-17.2,51C583.2,1146.7,582.8,1180.2,577.5,1212.7z"/>
	<g id="Tracé_59">
		<linearGradient id="SVGID_1_" gradientUnits="userSpaceOnUse" x1="317.631" y1="1195.1891" x2="383.007" y2="1195.1891">
			<stop  offset="0" style="stop-color:#E6294A"/>
			<stop  offset="0.787" style="stop-color:#E94B32"/>
			<stop  offset="1" style="stop-color:#EA592D"/>
		</linearGradient>
		<path style="fill:url(#SVGID_1_);" d="M350.3,1227.9c-18,0-32.7-14.7-32.7-32.7l0,0l0,0c0-8.7,3.4-16.9,9.6-23.1
			s14.4-9.6,23.1-9.6c0,0,0,0,0,0c18,0,32.7,14.7,32.7,32.7C383,1213.2,368.3,1227.9,350.3,1227.9
			C350.3,1227.9,350.3,1227.9,350.3,1227.9z M350.3,1165.5C350.3,1165.5,350.3,1165.5,350.3,1165.5c-7.9,0-15.4,3.1-21,8.7
			c-5.6,5.6-8.7,13.1-8.7,21l0,0c0,16.4,13.3,29.7,29.7,29.7c0,0,0,0,0,0c7.9,0,15.4-3.1,21-8.7c5.6-5.6,8.7-13.1,8.7-21
			C380,1178.8,366.7,1165.5,350.3,1165.5z"/>
	</g>
	
		<linearGradient id="Tracé_60_1_" gradientUnits="userSpaceOnUse" x1="338.5656" y1="1264.9735" x2="339.5656" y2="1264.9735" gradientTransform="matrix(34.496 0 0 -34.496 -11140.6797 44597.1211)">
		<stop  offset="0" style="stop-color:#E6294A"/>
		<stop  offset="0.787" style="stop-color:#E94B32"/>
		<stop  offset="1" style="stop-color:#EA592D"/>
	</linearGradient>
	<path id="Tracé_60" style="fill:url(#Tracé_60_1_);" d="M555.7,943.4c9.5,0,17.2,7.7,17.2,17.2s-7.7,17.2-17.2,17.2
		s-17.2-7.7-17.2-17.2S546.2,943.4,555.7,943.4C555.7,943.4,555.7,943.4,555.7,943.4z"/>
</g>
</svg>
