<?xml version="1.0" encoding="utf-8"?>
<!-- Generator: Adobe Illustrator 24.0.2, SVG Export Plug-In . SVG Version: 6.00 Build 0)  -->
<svg version="1.1" id="Calque_1" xmlns="http://www.w3.org/2000/svg" xmlns:xlink="http://www.w3.org/1999/xlink" x="0px" y="0px"
	 viewBox="0 0 345.1 357.2" style="enable-background:new 0 0 345.1 357.2;" xml:space="preserve">
<g id="Groupe_9" transform="translate(-266.766 -943.351)">
	
		<linearGradient id="Tracé_58_1_" gradientUnits="userSpaceOnUse" x1="728.8791" y1="-99.013" x2="729.8431" y2="-99.013" gradientTransform="matrix(-295.4758 38.3608 -38.3089 -295.5193 212161.6094 -56077.7422)">
		<stop  offset="0" style="stop-color:#29316E"/>
		<stop  offset="1" style="stop-color:#2F8BCB"/>
	</linearGradient>
	<path id="Tracé_58" style="fill:url(#Tracé_58_1_);" d="M316,1167.5c-17.6-24.3-29.1-55.4-11.4-83.3
		c11.5-18.1,35.2-28.3,55.5-21.7c15.1,4.9,26.4,17.7,40.7,24.6c18.5,8.8,40.4,7.1,60.1,1.4c19.8-5.6,38.4-14.8,58.1-20.4
		c8.7-2.4,17.8-4.2,26.7-2.3c8.4,1.8,15.7,6.9,22.1,12.6c6.2,5.5,11.8,12.1,14.4,19.9c2.4,7.1,2.1,15,0.2,22.3
		c-5.2,20-22.1,35-39.9,45.4c-17.7,10.3-38.4,16.7-54.7,29.1c-17.3,13.1-30.7,31.4-41.4,50.1c-5.7,10-11.9,20-20.9,27.1
		c-9,7.1-21.5,10.9-32.2,6.8c-5.9-2.2-10.7-6.6-14.5-11.6c-8.5-11-12.5-24.9-18.5-37.4C349.1,1206.9,330.9,1188.3,316,1167.5z"/>
	<g id="Tracé_59">
		
			<linearGradient id="SVGID_1_" gradientUnits="userSpaceOnUse" x1="773.366" y1="63.1509" x2="838.766" y2="63.1509" gradientTransform="matrix(1 0 0 -1 -266.766 1301.351)">
			<stop  offset="0" style="stop-color:#29316E"/>
			<stop  offset="1" style="stop-color:#2F8BCB"/>
		</linearGradient>
		<path style="fill:url(#SVGID_1_);" d="M539.3,1270.9c-18,0-32.7-14.7-32.7-32.7l0,0l0,0c0-8.7,3.4-16.9,9.6-23.1
			c6.2-6.2,14.4-9.6,23.1-9.6l0,0c18,0,32.7,14.7,32.7,32.7C572,1256.2,557.3,1270.9,539.3,1270.9L539.3,1270.9z M539.3,1208.5
			L539.3,1208.5c-7.9,0-15.4,3.1-21,8.7c-5.6,5.6-8.7,13.1-8.7,21l0,0c0,16.4,13.3,29.7,29.7,29.7l0,0c7.9,0,15.4-3.1,21-8.7
			c5.6-5.6,8.7-13.1,8.7-21C569,1221.8,555.7,1208.5,539.3,1208.5z"/>
	</g>
	
		<linearGradient id="Tracé_60_1_" gradientUnits="userSpaceOnUse" x1="720.1573" y1="-95.5213" x2="721.1573" y2="-95.5213" gradientTransform="matrix(34.496 0 0 34.496 -24463.0469 4284.7026)">
		<stop  offset="0" style="stop-color:#29316E"/>
		<stop  offset="1" style="stop-color:#2F8BCB"/>
	</linearGradient>
	<path id="Tracé_60" style="fill:url(#Tracé_60_1_);" d="M396.7,972.4c9.5,0,17.2,7.7,17.2,17.2s-7.7,17.2-17.2,17.2
		s-17.2-7.7-17.2-17.2S387.2,972.4,396.7,972.4L396.7,972.4z"/>
</g>
</svg>
