<?xml version="1.0" encoding="utf-8"?>
<!-- Generator: Adobe Illustrator 24.0.2, SVG Export Plug-In . SVG Version: 6.00 Build 0)  -->
<svg version="1.1" id="Calque_1" xmlns="http://www.w3.org/2000/svg" xmlns:xlink="http://www.w3.org/1999/xlink" x="0px" y="0px"
	 viewBox="0 0 345.1 357.2" style="enable-background:new 0 0 345.1 357.2;" xml:space="preserve">
<g id="Groupe_9" transform="translate(-266.766 -943.351)">
	
		<linearGradient id="Tracé_58_1_" gradientUnits="userSpaceOnUse" x1="728.692" y1="-98.8208" x2="729.656" y2="-98.8208" gradientTransform="matrix(-276.5413 -110.9164 110.9828 -276.5539 213065.9375 54674.9414)">
		<stop  offset="0" style="stop-color:#29316E"/>
		<stop  offset="1" style="stop-color:#2F8BCB"/>
	</linearGradient>
	<path id="Tracé_58" style="fill:url(#Tracé_58_1_);" d="M335.3,1068.7c-3.5-29.8,1.7-62.6,30.7-78.2c18.8-10.1,44.6-7.5,59,8.2
		c10.8,11.7,14.4,28.4,23.5,41.3c11.8,16.7,31.8,25.9,51.8,30.6c20,4.8,40.7,5.9,60.6,10.6c8.7,2.1,17.6,5,24.4,11
		c6.4,5.7,10.4,13.7,13.2,21.8c2.7,7.9,4.4,16.3,2.9,24.4c-1.4,7.4-5.5,14.1-10.7,19.5c-14.3,14.9-36.4,19.8-57,20.1
		c-20.5,0.3-41.6-4.1-62-1.3c-21.5,3-42.1,12.4-60.6,23.5c-9.9,5.9-20.1,11.6-31.4,13.5c-11.3,1.8-24.1-1-31.4-9.8
		c-4-4.8-6.1-11-7-17.2c-2-13.8,1.3-27.8,2.1-41.7C344.9,1119.2,338.2,1094.1,335.3,1068.7z"/>
	<g id="Tracé_59">
		
			<linearGradient id="SVGID_1_" gradientUnits="userSpaceOnUse" x1="775.366" y1="303.1509" x2="840.766" y2="303.1509" gradientTransform="matrix(1 0 0 -1 -266.766 1301.351)">
			<stop  offset="0" style="stop-color:#29316E"/>
			<stop  offset="1" style="stop-color:#2F8BCB"/>
		</linearGradient>
		<path style="fill:url(#SVGID_1_);" d="M541.3,1030.9c-18,0-32.7-14.7-32.7-32.7l0,0l0,0c0-8.7,3.4-16.9,9.6-23.1
			c6.2-6.2,14.4-9.6,23.1-9.6l0,0c18,0,32.7,14.7,32.7,32.7C574,1016.2,559.3,1030.9,541.3,1030.9L541.3,1030.9z M541.3,968.5
			L541.3,968.5c-7.9,0-15.4,3.1-21,8.7c-5.6,5.6-8.7,13.1-8.7,21l0,0c0,16.4,13.3,29.7,29.7,29.7l0,0c7.9,0,15.4-3.1,21-8.7
			c5.6-5.6,8.7-13.1,8.7-21C571,981.8,557.7,968.5,541.3,968.5z"/>
	</g>
	
		<linearGradient id="Tracé_60_1_" gradientUnits="userSpaceOnUse" x1="717.6643" y1="-87.6943" x2="718.6643" y2="-87.6943" gradientTransform="matrix(34.496 0 0 34.496 -24463.0469 4284.7026)">
		<stop  offset="0" style="stop-color:#29316E"/>
		<stop  offset="1" style="stop-color:#2F8BCB"/>
	</linearGradient>
	<path id="Tracé_60" style="fill:url(#Tracé_60_1_);" d="M310.7,1242.4c9.5,0,17.2,7.7,17.2,17.2s-7.7,17.2-17.2,17.2
		s-17.2-7.7-17.2-17.2S301.2,1242.4,310.7,1242.4L310.7,1242.4z"/>
</g>
</svg>
