<?xml version="1.0" encoding="utf-8"?>
<!-- Generator: Adobe Illustrator 24.0.2, SVG Export Plug-In . SVG Version: 6.00 Build 0)  -->
<svg version="1.1" id="Calque_1" xmlns="http://www.w3.org/2000/svg" xmlns:xlink="http://www.w3.org/1999/xlink" x="0px" y="0px"
	 viewBox="0 0 345.1 357.2" style="enable-background:new 0 0 345.1 357.2;" xml:space="preserve">
<g id="Groupe_9" transform="translate(-266.766 -943.351)">
	
		<linearGradient id="Tracé_58_1_" gradientUnits="userSpaceOnUse" x1="728.8248" y1="-98.9862" x2="729.7635" y2="-98.9862" gradientTransform="matrix(103.8398 279.2755 -279.3295 103.7991 -102954.9531 -192256.4531)">
		<stop  offset="0" style="stop-color:#E6294A"/>
		<stop  offset="0.787" style="stop-color:#E94B32"/>
		<stop  offset="1" style="stop-color:#EA592D"/>
	</linearGradient>
	<path id="Tracé_58" style="fill:url(#Tracé_58_1_);" d="M459,1265c-19.2,22-46.2,39.7-76.5,29.1c-19.6-6.9-34.6-27.2-32.7-47.9
		c1.4-15.5,11-28.9,14.4-44c4.3-19.5-2.1-39.9-11.8-57.4c-9.6-17.5-22.4-33.2-32.1-50.6c-4.2-7.7-7.9-16-8-24.8
		c-0.1-8.4,3.1-16.4,7.1-23.7c3.9-7.1,8.9-13.8,15.7-18.1c6.2-3.9,13.7-5.3,21.1-5.1c20.1,0.6,38,13.3,51.8,27.9
		c13.6,14.6,24.3,32.7,39.6,45.5c16.2,13.5,36.5,22.3,56.6,28.3c10.7,3.2,21.5,6.9,30.3,13.8c8.7,7,15.1,18,13.5,29
		c-0.8,6.1-4,11.6-7.8,16.3c-8.6,10.5-20.9,17.3-31.4,25.8C489,1225,475.4,1246.3,459,1265z"/>
	<g id="degrade_blue_2">
		
			<linearGradient id="SVGID_1_" gradientUnits="userSpaceOnUse" x1="509.6078" y1="984.9335" x2="575.0078" y2="984.9335" gradientTransform="matrix(0.993 0.118 -0.118 0.993 136.1033 -49.0288)">
			<stop  offset="0" style="stop-color:#E6294A"/>
			<stop  offset="0.787" style="stop-color:#E94B32"/>
			<stop  offset="1" style="stop-color:#EA592D"/>
		</linearGradient>
		<path style="fill:url(#SVGID_1_);" d="M554.5,1025.5c-17.9-2.1-30.7-18.5-28.6-36.3l0,0l0,0c1-8.6,5.4-16.4,12.3-21.8
			c6.9-5.4,15.4-7.8,24.1-6.8l0,0c17.9,2.1,30.7,18.5,28.6,36.3C588.7,1014.8,572.4,1027.6,554.5,1025.5L554.5,1025.5z M561.9,963.5
			L561.9,963.5c-7.8-0.9-15.7,1.3-21.9,6.2c-6.2,4.9-10.2,12-11.1,19.8l0,0c-1.9,16.3,9.7,31.1,26,33l0,0c7.8,0.9,15.7-1.3,21.9-6.2
			s10.2-12,11.1-19.8C589.8,980.2,578.2,965.5,561.9,963.5z"/>
	</g>
	
		<linearGradient id="trace_60_1_" gradientUnits="userSpaceOnUse" x1="725.0379" y1="-88.2971" x2="726.0379" y2="-88.2971" gradientTransform="matrix(34.255 4.0708 -4.0708 34.255 -24661.6426 1318.8787)">
		<stop  offset="0" style="stop-color:#E6294A"/>
		<stop  offset="0.787" style="stop-color:#E94B32"/>
		<stop  offset="1" style="stop-color:#EA592D"/>
	</linearGradient>
	<path id="trace_60" style="fill:url(#trace_60_1_);" d="M553.1,1230.7c9.4,1.1,16.2,9.7,15.1,19.1s-9.7,16.2-19.1,15.1
		c-9.4-1.1-16.2-9.7-15.1-19.1C535.1,1236.3,543.6,1229.6,553.1,1230.7L553.1,1230.7z"/>
</g>
</svg>
