<?xml version="1.0" encoding="utf-8"?>
<!-- Generator: Adobe Illustrator 24.0.2, SVG Export Plug-In . SVG Version: 6.00 Build 0)  -->
<svg version="1.1" id="Calque_1" xmlns="http://www.w3.org/2000/svg" xmlns:xlink="http://www.w3.org/1999/xlink" x="0px" y="0px"
	 viewBox="0 0 345.1 357.2" style="enable-background:new 0 0 345.1 357.2;" xml:space="preserve">
<g id="Groupe_9" transform="translate(-266.766 -943.351)">
	
		<linearGradient id="Tracé_58_1_" gradientUnits="userSpaceOnUse" x1="728.6569" y1="-99.0805" x2="729.5889" y2="-99.0805" gradientTransform="matrix(194.0112 226.1353 -226.2 193.9917 -163448.1563 -144582.8906)">
		<stop  offset="0" style="stop-color:#E6294A"/>
		<stop  offset="0.787" style="stop-color:#E94B32"/>
		<stop  offset="1" style="stop-color:#EA592D"/>
	</linearGradient>
	<path id="Tracé_58" style="fill:url(#Tracé_58_1_);" d="M495.8,1178.7c-10.3,27.1-29.4,52.9-61.3,53.4
		c-20.7,0.3-41.6-13.5-46.9-33.4c-4-14.9,0.3-30.7-1.7-45.9c-2.7-19.6-15.7-36.5-30.7-49.4c-15-13-32.3-23.2-47.3-36.1
		c-6.5-5.7-12.9-12.2-16-20.3c-3-7.7-2.8-16.4-1.6-24.5c1.2-8,3.6-16,8.5-22.2c4.5-5.7,11-9.7,17.9-12c19-6.4,40-0.7,57.8,8.2
		c17.7,8.9,33.9,22.2,52.5,28.8c19.8,7,41.7,8.2,62.5,7c11.1-0.7,22.4-1,33,2.5c10.5,3.5,20.2,11.6,22.5,22.4
		c1.3,5.9,0.3,12.2-1.7,17.9c-4.4,12.7-13.5,23.2-20.4,34.8C510.1,1131.1,504.7,1155.6,495.8,1178.7z"/>
	<g id="degrade_blue_2">
		
			<linearGradient id="SVGID_1_" gradientUnits="userSpaceOnUse" x1="509.6078" y1="974.0005" x2="553.1417" y2="974.0005" gradientTransform="matrix(0.993 0.118 -0.118 0.993 136.1033 -49.0288)">
			<stop  offset="0" style="stop-color:#E6294A"/>
			<stop  offset="0.787" style="stop-color:#E94B32"/>
			<stop  offset="1" style="stop-color:#EA592D"/>
		</linearGradient>
		<path style="fill:url(#SVGID_1_);" d="M546.3,1002.5c-11.9-1.4-20.5-12.3-19-24.2l0,0l0,0c0.7-5.8,3.6-10.9,8.2-14.5
			c4.6-3.6,10.3-5.2,16-4.5l0,0c11.9,1.4,20.5,12.3,19,24.2C569,995.3,558.2,1003.9,546.3,1002.5L546.3,1002.5z M551.2,961.2
			L551.2,961.2c-5.2-0.6-10.4,0.8-14.6,4.1s-6.8,8-7.4,13.2l0,0c-1.3,10.8,6.5,20.7,17.3,22l0,0c5.2,0.6,10.4-0.8,14.6-4.1
			c4.1-3.3,6.8-8,7.4-13.2C569.7,972.4,562,962.5,551.2,961.2z"/>
	</g>
	
		<linearGradient id="trace_60_1_" gradientUnits="userSpaceOnUse" x1="718.5413" y1="-88.0692" x2="720.265" y2="-88.0692" gradientTransform="matrix(34.255 4.0708 -4.0708 34.255 -24661.6426 1318.8787)">
		<stop  offset="0" style="stop-color:#E6294A"/>
		<stop  offset="0.787" style="stop-color:#E94B32"/>
		<stop  offset="1" style="stop-color:#EA592D"/>
	</linearGradient>
	<path id="trace_60" style="fill:url(#trace_60_1_);" d="M343.4,1201.2c16.3,1.9,27.9,16.7,25.9,32.9s-16.7,27.9-32.9,25.9
		c-16.3-1.9-27.9-16.7-25.9-32.9S327.2,1199.3,343.4,1201.2L343.4,1201.2z"/>
</g>
</svg>
