<?xml version="1.0" encoding="utf-8"?>
<!-- Generator: Adobe Illustrator 24.0.2, SVG Export Plug-In . SVG Version: 6.00 Build 0)  -->
<svg version="1.1" id="Calque_1" xmlns="http://www.w3.org/2000/svg" xmlns:xlink="http://www.w3.org/1999/xlink" x="0px" y="0px"
	 viewBox="0 0 345.1 357.2" style="enable-background:new 0 0 345.1 357.2;" xml:space="preserve">
<g id="Groupe_9" transform="translate(-266.766 -943.351)">
	
		<linearGradient id="Tracé_58_1_" gradientUnits="userSpaceOnUse" x1="728.761" y1="-99.0198" x2="729.6998" y2="-99.0198" gradientTransform="matrix(136.0712 265.07 -265.1285 136.0372 -125052.8906 -178698.7344)">
		<stop  offset="0" style="stop-color:#E6294A"/>
		<stop  offset="0.787" style="stop-color:#E94B32"/>
		<stop  offset="1" style="stop-color:#EA592D"/>
	</linearGradient>
	<path id="Tracé_58" style="fill:url(#Tracé_58_1_);" d="M475.9,1245.2c-16.5,24.1-41.2,44.9-72.6,37.9
		c-20.3-4.6-37.6-23-38.1-43.7c-0.5-15.5,7.5-30,9.1-45.4c2-19.9-6.8-39.4-18.5-55.6c-11.6-16.3-26.2-30.3-37.8-46.5
		c-5.1-7.1-9.7-14.9-10.9-23.7c-1.1-8.3,1.1-16.7,4.2-24.4c3-7.5,7.2-14.8,13.5-19.8c5.7-4.6,13-6.9,20.3-7.5
		c20.1-1.8,39.3,8.7,54.7,21.6c15.2,12.9,28,29.6,44.7,40.5c17.7,11.5,38.9,17.8,59.6,21.5c11,1.9,22.2,4.3,31.7,10.2
		c9.5,5.9,17.1,16.1,16.8,27.2c-0.1,6.1-2.6,12-5.8,17.1c-7.3,11.4-18.7,19.6-28.2,29.3C501,1202,490,1224.7,475.9,1245.2z"/>
	<g id="degrade_blue_2">
		
			<linearGradient id="SVGID_1_" gradientUnits="userSpaceOnUse" x1="797.366" y1="271.1509" x2="862.766" y2="271.1509" gradientTransform="matrix(1 0 0 -1 -266.766 1301.351)">
			<stop  offset="0" style="stop-color:#E6294A"/>
			<stop  offset="0.787" style="stop-color:#E94B32"/>
			<stop  offset="1" style="stop-color:#EA592D"/>
		</linearGradient>
		<path style="fill:url(#SVGID_1_);" d="M563.3,1062.9c-18,0-32.7-14.7-32.7-32.7l0,0l0,0c0-8.7,3.4-16.9,9.6-23.1
			s14.4-9.6,23.1-9.6l0,0c18,0,32.7,14.7,32.7,32.7C596,1048.2,581.3,1062.9,563.3,1062.9L563.3,1062.9z M563.3,1000.5L563.3,1000.5
			c-7.9,0-15.4,3.1-21,8.7c-5.6,5.6-8.7,13.1-8.7,21l0,0c0,16.4,13.3,29.7,29.7,29.7l0,0c7.9,0,15.4-3.1,21-8.7
			c5.6-5.6,8.7-13.1,8.7-21C593,1013.8,579.7,1000.5,563.3,1000.5z"/>
	</g>
	
		<linearGradient id="trace_60_1_" gradientUnits="userSpaceOnUse" x1="720.1863" y1="-95.8112" x2="721.1863" y2="-95.8112" gradientTransform="matrix(34.496 0 0 34.496 -24463.0469 4284.7026)">
		<stop  offset="0" style="stop-color:#E6294A"/>
		<stop  offset="0.787" style="stop-color:#E94B32"/>
		<stop  offset="1" style="stop-color:#EA592D"/>
	</linearGradient>
	<path id="trace_60" style="fill:url(#trace_60_1_);" d="M397.7,962.4c9.5,0,17.2,7.7,17.2,17.2s-7.7,17.2-17.2,17.2
		s-17.2-7.7-17.2-17.2S388.2,962.4,397.7,962.4L397.7,962.4z"/>
</g>
</svg>
