<?xml version="1.0" encoding="utf-8"?>
<!-- Generator: Adobe Illustrator 24.0.2, SVG Export Plug-In . SVG Version: 6.00 Build 0)  -->
<svg version="1.1" id="Calque_1" xmlns="http://www.w3.org/2000/svg" xmlns:xlink="http://www.w3.org/1999/xlink" x="0px" y="0px"
	 viewBox="0 0 345.1 357.2" style="enable-background:new 0 0 345.1 357.2;" xml:space="preserve">
<g id="Groupe_9" transform="translate(-266.766 -943.351)">
	
		<linearGradient id="Tracé_58_1_" gradientUnits="userSpaceOnUse" x1="728.8248" y1="-98.9862" x2="729.7635" y2="-98.9862" gradientTransform="matrix(0.1945 297.9555 -297.992 0.1375 -29220.9902 -216148.0156)">
		<stop  offset="0" style="stop-color:#E6294A"/>
		<stop  offset="0.787" style="stop-color:#E94B32"/>
		<stop  offset="1" style="stop-color:#EA592D"/>
	</linearGradient>
	<path id="Tracé_58" style="fill:url(#Tracé_58_1_);" d="M407.7,1262c-25.7,14-57.1,21.2-81.9,0.6c-16-13.3-22.9-37.6-14-56.3
		c6.7-14,20.4-23.3,28.8-36.3c10.8-16.8,11.9-38.2,8.9-57.9c-2.9-19.8-9.5-38.9-12.5-58.6c-1.3-8.7-1.9-17.7,1.1-26
		c2.8-7.9,8.6-14.4,14.9-19.8c6.1-5.3,13.2-9.9,21-11.5c7.2-1.4,14.7-0.2,21.5,2.6c18.7,7.5,31.1,25.7,38.8,44.2
		c7.7,18.4,11.4,39.1,21.3,56.5c10.5,18.3,26.5,33.6,43.2,46.3c8.9,6.8,17.8,13.9,23.6,23.5c5.8,9.6,7.9,22.1,2.6,31.9
		c-2.9,5.4-7.7,9.5-13,12.6c-11.7,6.8-25.6,8.9-38.5,13.2C449.8,1235,429.5,1250.2,407.7,1262z"/>
	<g id="degrade_blue_2">
		
			<linearGradient id="SVGID_1_" gradientUnits="userSpaceOnUse" x1="442.7962" y1="970.6981" x2="508.1962" y2="970.6981" gradientTransform="matrix(0.8899 0.4561 -0.4561 0.8899 562.1006 -82.2185)">
			<stop  offset="0" style="stop-color:#E6294A"/>
			<stop  offset="0.787" style="stop-color:#E94B32"/>
			<stop  offset="1" style="stop-color:#EA592D"/>
		</linearGradient>
		<path style="fill:url(#SVGID_1_);" d="M527.6,1027.6c-16-8.2-22.4-28-14.2-44l0,0l0,0c4-7.7,10.7-13.5,19.1-16.2
			c8.3-2.7,17.2-2,24.9,2l0,0c16,8.2,22.4,28,14.2,44C563.4,1029.4,543.6,1035.8,527.6,1027.6L527.6,1027.6z M556.1,972.1
			L556.1,972.1c-7-3.6-15.1-4.3-22.7-1.8c-7.5,2.4-13.7,7.7-17.3,14.7l0,0c-7.5,14.6-1.7,32.5,12.9,40l0,0c7,3.6,15.1,4.3,22.7,1.8
			c7.5-2.4,13.7-7.7,17.3-14.7C576.4,997.5,570.7,979.6,556.1,972.1z"/>
	</g>
	
		<linearGradient id="trace_60_1_" gradientUnits="userSpaceOnUse" x1="721.9987" y1="-93.4826" x2="722.9987" y2="-93.4826" gradientTransform="matrix(30.6989 15.7337 -15.7337 30.6989 -23162.4961 -7426.7954)">
		<stop  offset="0" style="stop-color:#E6294A"/>
		<stop  offset="0.787" style="stop-color:#E94B32"/>
		<stop  offset="1" style="stop-color:#EA592D"/>
	</linearGradient>
	<path id="trace_60" style="fill:url(#trace_60_1_);" d="M496.1,1055.6c8.5,4.3,11.8,14.7,7.5,23.2s-14.7,11.8-23.2,7.5
		s-11.8-14.7-7.5-23.2S487.6,1051.3,496.1,1055.6L496.1,1055.6z"/>
</g>
</svg>
