<?xml version="1.0" encoding="utf-8"?>
<!-- Generator: Adobe Illustrator 24.0.2, SVG Export Plug-In . SVG Version: 6.00 Build 0)  -->
<svg version="1.1" id="Calque_1" xmlns="http://www.w3.org/2000/svg" xmlns:xlink="http://www.w3.org/1999/xlink" x="0px" y="0px"
	 viewBox="0 0 345.1 357.2" style="enable-background:new 0 0 345.1 357.2;" xml:space="preserve">
<g id="Groupe_9" transform="translate(-266.766 -943.351)">
	<g id="degrade_blue_2">
		
			<linearGradient id="SVGID_1_" gradientUnits="userSpaceOnUse" x1="445.8217" y1="1081.2773" x2="489.3556" y2="1081.2773" gradientTransform="matrix(0.993 0.118 -0.118 0.993 136.1033 -49.0288)">
			<stop  offset="0" style="stop-color:#E6294A"/>
			<stop  offset="0.787" style="stop-color:#E94B32"/>
			<stop  offset="1" style="stop-color:#EA592D"/>
		</linearGradient>
		<path style="fill:url(#SVGID_1_);" d="M470.3,1101.5c-11.9-1.4-20.5-12.3-19-24.2l0,0l0,0c0.7-5.8,3.6-10.9,8.2-14.5
			s10.3-5.2,16-4.5l0,0c11.9,1.4,20.5,12.3,19,24.2C493,1094.3,482.2,1102.9,470.3,1101.5L470.3,1101.5z M475.2,1060.2L475.2,1060.2
			c-5.2-0.6-10.4,0.8-14.6,4.1c-4.1,3.3-6.8,8-7.4,13.2l0,0c-1.3,10.8,6.5,20.7,17.3,22l0,0c5.2,0.6,10.4-0.8,14.6-4.1
			s6.8-8,7.4-13.2C493.7,1071.4,486,1061.5,475.2,1060.2z"/>
	</g>
	
		<linearGradient id="trace_60_1_" gradientUnits="userSpaceOnUse" x1="720.3944" y1="-90.4742" x2="722.4788" y2="-90.4742" gradientTransform="matrix(34.255 4.0708 -4.0708 34.255 -24661.6426 1318.8787)">
		<stop  offset="0" style="stop-color:#E6294A"/>
		<stop  offset="0.787" style="stop-color:#E94B32"/>
		<stop  offset="1" style="stop-color:#EA592D"/>
	</linearGradient>
	<path id="trace_60" style="fill:url(#trace_60_1_);" d="M423.6,1120.9c19.7,2.3,33.7,20.2,31.4,39.8c-2.3,19.7-20.2,33.7-39.8,31.4
		s-33.7-20.2-31.4-39.8S403.9,1118.6,423.6,1120.9L423.6,1120.9z"/>
</g>
</svg>
