<?xml version="1.0" encoding="utf-8"?>
<!-- Generator: Adobe Illustrator 24.0.2, SVG Export Plug-In . SVG Version: 6.00 Build 0)  -->
<svg version="1.1" id="Calque_1" xmlns="http://www.w3.org/2000/svg" xmlns:xlink="http://www.w3.org/1999/xlink" x="0px" y="0px"
	 viewBox="0 0 30.3 30.3" style="enable-background:new 0 0 30.3 30.3;" xml:space="preserve">
<g id="Composant_5_1" transform="translate(1.414 1.414)">
	<g id="Ligne_1">
		<path d="M-0.4,28.9c-0.3,0-0.5-0.1-0.7-0.3c-0.4-0.4-0.4-1,0-1.4L27.2-1.1c0.4-0.4,1-0.4,1.4,0s0.4,1,0,1.4L0.3,28.6
			C0.1,28.8-0.2,28.9-0.4,28.9z"/>
	</g>
	<g id="Ligne_3">
		<path d="M27.9,28.9c-0.3,0-0.5-0.1-0.7-0.3L-1.1,0.3c-0.4-0.4-0.4-1,0-1.4s1-0.4,1.4,0l28.3,28.3c0.4,0.4,0.4,1,0,1.4
			C28.4,28.8,28.1,28.9,27.9,28.9z"/>
	</g>
</g>
</svg>
