<svg xmlns="http://www.w3.org/2000/svg" width="70.9" height="70.9" viewBox="0 0 70.9 70.9">
  <path id="Tracé_506" data-name="Tracé 506" d="M13.54,13.56v70.9h70.9V13.56ZM29.818,69.227l18.71-18.71V80.649C41.575,80.256,34.525,76.356,29.818,69.227ZM15.962,59.694a31.919,31.919,0,0,0,1.3,3.683l-1.3.611Zm33.8,21.024V50.477L72.043,72.762C66.42,78.2,59.222,80.718,49.758,80.718Zm0-63.938a31.365,31.365,0,0,1,3.427-.2c8.094,0,15.578,5.78,18.9,8.764L49.758,47.563ZM47.69,48.41H24.313a36.429,36.429,0,0,1,4.924-18.483Zm-17.8-19.517A26.852,26.852,0,0,1,48.6,16.967v30.6ZM24.313,49.621H46.578L25.544,59.468A41.549,41.549,0,0,1,24.313,49.621Zm21.861,1.526L29.128,68.183a32.734,32.734,0,0,1-3.24-7.523ZM79,63.131A37.864,37.864,0,0,1,72.9,71.9L50.615,49.621h27.08l1.822,12.408C79.359,62.412,79.172,62.718,79,63.131ZM52,48.419l23.88-11.206,1.605,11.206ZM75.982,29.611a33.969,33.969,0,0,1,2.866,4.924l-1.969.985ZM75.7,35.972,52.063,47.07l20.916-20.9c.571.542.9.886.906.9l.6.719ZM74.455,18.247l-.3-.138a40.586,40.586,0,0,0-5.908-2.088H81.545l-6.489,6.322ZM38.818,15.973A33.48,33.48,0,0,0,24.864,23.85l-7.878-7.878ZM24.047,24.747c-.443.453-.906.886-1.31,1.369a34.824,34.824,0,0,0-6.755,12.8V16.682ZM15.972,65.327l1.792-.847a31.718,31.718,0,0,0,6.184,8.863l-7.976,7.976Zm8.863,8.863a34.128,34.128,0,0,0,5.574,4.284A37.792,37.792,0,0,0,38.2,82.048H16.957Zm40.9,7.878A46.192,46.192,0,0,0,76.809,77.7l.128-.069,4.431,4.441Zm16.337-.985L77.685,76.7l2.137-12.644,2.245,15.214Zm0-10.123-1.29-8.774a34.593,34.593,0,0,0,1.29-3.772Zm0-19.34a33.479,33.479,0,0,1-1.625,8.075L78.916,49.621h3.131Zm0-3.181H78.749L77.016,36.672l2.324-1.083a33.479,33.479,0,0,1,2.708,11.127Zm0-8.784a34.285,34.285,0,0,0-1.625-4.569l1.625-.768Zm0-6.657-2.127.985a34.679,34.679,0,0,0-4.146-6.617l-.5-3.476,6.765-6.755Z" transform="translate(-13.54 -13.56)" fill="#ed7203"/>
</svg>
