<?xml version="1.0" encoding="utf-8"?>
<!-- Generator: Adobe Illustrator 24.0.2, SVG Export Plug-In . SVG Version: 6.00 Build 0)  -->
<svg version="1.1" id="Calque_1" xmlns="http://www.w3.org/2000/svg" xmlns:xlink="http://www.w3.org/1999/xlink" x="0px" y="0px"
	 viewBox="0 0 34.6 47.7" style="enable-background:new 0 0 34.6 47.7;" xml:space="preserve">
<g id="Groupe_83" transform="translate(0)">
	<path id="Tracé_303" d="M17.3,0C7.7,0,0,7.7,0,17.3c0,11.8,15.5,29.2,16.1,29.9c0.6,0.6,1.6,0.7,2.2,0.1c0,0,0.1-0.1,0.1-0.1
		c0.7-0.7,16.1-18.1,16.1-29.9C34.5,7.7,26.8,0,17.3,0z M17.3,26c-4.8,0-8.7-3.9-8.7-8.7s3.9-8.7,8.7-8.7c4.8,0,8.7,3.9,8.7,8.7l0,0
		C26,22.1,22.1,26,17.3,26z"/>
</g>
</svg>
